<mxfile host="65bd71144e">
    <diagram id="KtVHELRv6riG92v007w0" name="checksig">
        <mxGraphModel dx="1118" dy="773" grid="1" gridSize="10" guides="1" tooltips="1" connect="1" arrows="1" fold="1" page="1" pageScale="1" pageWidth="1169" pageHeight="827" math="0" shadow="0">
            <root>
                <mxCell id="0"/>
                <mxCell id="1" parent="0"/>
                <mxCell id="4Uoxr0BLBg2A_77hPQzO-44" value="" style="rounded=0;whiteSpace=wrap;html=1;fontFamily=Helvetica;fontSize=11;dashed=1;" parent="1" vertex="1">
                    <mxGeometry x="340" y="714.75" width="710" height="80" as="geometry"/>
                </mxCell>
                <mxCell id="4Uoxr0BLBg2A_77hPQzO-43" value="" style="rounded=0;whiteSpace=wrap;html=1;fontFamily=Helvetica;fontSize=11;dashed=1;" parent="1" vertex="1">
                    <mxGeometry x="80" y="714.75" width="260" height="80" as="geometry"/>
                </mxCell>
                <mxCell id="4Uoxr0BLBg2A_77hPQzO-31" style="edgeStyle=none;curved=1;html=1;shadow=0;dashed=1;dashPattern=1 1;strokeColor=default;strokeWidth=1;fontFamily=Courier New;fontSize=18;" parent="1" source="lMsm-y4N80QGj6X4iRSj-1" target="lMsm-y4N80QGj6X4iRSj-2" edge="1">
                    <mxGeometry relative="1" as="geometry"/>
                </mxCell>
                <mxCell id="4Uoxr0BLBg2A_77hPQzO-32" value="&lt;font style=&quot;font-size: 11px;&quot; face=&quot;Helvetica&quot;&gt;generate()&lt;/font&gt;" style="edgeLabel;html=1;align=center;verticalAlign=middle;resizable=0;points=[];fontSize=18;fontFamily=Courier New;" parent="4Uoxr0BLBg2A_77hPQzO-31" vertex="1" connectable="0">
                    <mxGeometry x="-0.6" y="3" relative="1" as="geometry">
                        <mxPoint x="26" y="12" as="offset"/>
                    </mxGeometry>
                </mxCell>
                <mxCell id="4Uoxr0BLBg2A_77hPQzO-38" style="edgeStyle=none;html=1;shadow=0;strokeColor=default;strokeWidth=1;fontFamily=Helvetica;fontSize=11;rounded=1;" parent="1" source="lMsm-y4N80QGj6X4iRSj-1" target="4Uoxr0BLBg2A_77hPQzO-12" edge="1">
                    <mxGeometry relative="1" as="geometry">
                        <Array as="points">
                            <mxPoint x="500" y="254.75"/>
                        </Array>
                    </mxGeometry>
                </mxCell>
                <mxCell id="lMsm-y4N80QGj6X4iRSj-1" value="private_key" style="rounded=0;whiteSpace=wrap;html=1;" parent="1" vertex="1">
                    <mxGeometry x="280" y="226" width="120" height="60" as="geometry"/>
                </mxCell>
                <mxCell id="lMsm-y4N80QGj6X4iRSj-6" style="edgeStyle=none;html=1;" parent="1" source="lMsm-y4N80QGj6X4iRSj-2" target="lMsm-y4N80QGj6X4iRSj-5" edge="1">
                    <mxGeometry relative="1" as="geometry"/>
                </mxCell>
                <mxCell id="lMsm-y4N80QGj6X4iRSj-7" value="hash160()" style="edgeLabel;html=1;align=center;verticalAlign=middle;resizable=0;points=[];" parent="lMsm-y4N80QGj6X4iRSj-6" vertex="1" connectable="0">
                    <mxGeometry x="-0.28" y="-2" relative="1" as="geometry">
                        <mxPoint x="31" y="4" as="offset"/>
                    </mxGeometry>
                </mxCell>
                <mxCell id="4Uoxr0BLBg2A_77hPQzO-41" style="edgeStyle=none;curved=1;html=1;shadow=0;dashed=1;dashPattern=1 4;strokeColor=default;strokeWidth=1;fontFamily=Helvetica;fontSize=11;" parent="1" source="lMsm-y4N80QGj6X4iRSj-2" target="4Uoxr0BLBg2A_77hPQzO-24" edge="1">
                    <mxGeometry relative="1" as="geometry">
                        <Array as="points">
                            <mxPoint x="190" y="394.75"/>
                        </Array>
                    </mxGeometry>
                </mxCell>
                <mxCell id="lMsm-y4N80QGj6X4iRSj-2" value="public_key" style="rounded=0;whiteSpace=wrap;html=1;" parent="1" vertex="1">
                    <mxGeometry x="280" y="354.75" width="120" height="60" as="geometry"/>
                </mxCell>
                <mxCell id="4Uoxr0BLBg2A_77hPQzO-42" style="edgeStyle=none;curved=1;html=1;shadow=0;dashed=1;dashPattern=1 4;strokeColor=default;strokeWidth=1;fontFamily=Helvetica;fontSize=11;" parent="1" source="lMsm-y4N80QGj6X4iRSj-5" target="4Uoxr0BLBg2A_77hPQzO-28" edge="1">
                    <mxGeometry relative="1" as="geometry">
                        <Array as="points">
                            <mxPoint x="620" y="624.75"/>
                        </Array>
                    </mxGeometry>
                </mxCell>
                <mxCell id="lMsm-y4N80QGj6X4iRSj-5" value="public_key_hash" style="rounded=0;whiteSpace=wrap;html=1;" parent="1" vertex="1">
                    <mxGeometry x="280" y="464.75" width="120" height="60" as="geometry"/>
                </mxCell>
                <mxCell id="4Uoxr0BLBg2A_77hPQzO-6" style="edgeStyle=none;html=1;" parent="1" source="4Uoxr0BLBg2A_77hPQzO-1" target="4Uoxr0BLBg2A_77hPQzO-5" edge="1">
                    <mxGeometry relative="1" as="geometry"/>
                </mxCell>
                <mxCell id="4Uoxr0BLBg2A_77hPQzO-7" value="hash160()" style="edgeLabel;html=1;align=center;verticalAlign=middle;resizable=0;points=[];" parent="4Uoxr0BLBg2A_77hPQzO-6" vertex="1" connectable="0">
                    <mxGeometry x="0.3667" y="-1" relative="1" as="geometry">
                        <mxPoint x="30" y="-11" as="offset"/>
                    </mxGeometry>
                </mxCell>
                <mxCell id="4Uoxr0BLBg2A_77hPQzO-1" value="message" style="rounded=0;whiteSpace=wrap;html=1;" parent="1" vertex="1">
                    <mxGeometry x="720" y="110" width="120" height="60" as="geometry"/>
                </mxCell>
                <mxCell id="4Uoxr0BLBg2A_77hPQzO-4" style="edgeStyle=none;html=1;" parent="1" source="4Uoxr0BLBg2A_77hPQzO-3" target="4Uoxr0BLBg2A_77hPQzO-1" edge="1">
                    <mxGeometry relative="1" as="geometry"/>
                </mxCell>
                <mxCell id="4Uoxr0BLBg2A_77hPQzO-3" value="serialized transaction" style="shape=note;strokeWidth=2;fontSize=14;size=20;whiteSpace=wrap;html=1;fillColor=#fff2cc;strokeColor=#d6b656;fontColor=#666600;" parent="1" vertex="1">
                    <mxGeometry x="540" y="144.75" width="110" height="50" as="geometry"/>
                </mxCell>
                <mxCell id="4Uoxr0BLBg2A_77hPQzO-39" style="edgeStyle=none;rounded=1;html=1;shadow=0;strokeColor=default;strokeWidth=1;fontFamily=Helvetica;fontSize=11;" parent="1" source="4Uoxr0BLBg2A_77hPQzO-5" target="4Uoxr0BLBg2A_77hPQzO-12" edge="1">
                    <mxGeometry relative="1" as="geometry">
                        <Array as="points">
                            <mxPoint x="660" y="255.75"/>
                        </Array>
                    </mxGeometry>
                </mxCell>
                <mxCell id="4Uoxr0BLBg2A_77hPQzO-5" value="message_hash (z)" style="rounded=0;whiteSpace=wrap;html=1;" parent="1" vertex="1">
                    <mxGeometry x="720" y="226" width="120" height="60" as="geometry"/>
                </mxCell>
                <mxCell id="4Uoxr0BLBg2A_77hPQzO-16" style="edgeStyle=none;html=1;" parent="1" source="4Uoxr0BLBg2A_77hPQzO-12" target="4Uoxr0BLBg2A_77hPQzO-15" edge="1">
                    <mxGeometry relative="1" as="geometry"/>
                </mxCell>
                <mxCell id="4Uoxr0BLBg2A_77hPQzO-12" value="sign(z)" style="ellipse;whiteSpace=wrap;html=1;" parent="1" vertex="1">
                    <mxGeometry x="520" y="344.75" width="120" height="80" as="geometry"/>
                </mxCell>
                <mxCell id="4Uoxr0BLBg2A_77hPQzO-18" style="edgeStyle=none;html=1;" parent="1" source="4Uoxr0BLBg2A_77hPQzO-15" target="4Uoxr0BLBg2A_77hPQzO-17" edge="1">
                    <mxGeometry relative="1" as="geometry"/>
                </mxCell>
                <mxCell id="4Uoxr0BLBg2A_77hPQzO-19" value="der()" style="edgeLabel;html=1;align=center;verticalAlign=middle;resizable=0;points=[];" parent="4Uoxr0BLBg2A_77hPQzO-18" vertex="1" connectable="0">
                    <mxGeometry x="-0.25" y="-1" relative="1" as="geometry">
                        <mxPoint x="10" y="-10" as="offset"/>
                    </mxGeometry>
                </mxCell>
                <mxCell id="4Uoxr0BLBg2A_77hPQzO-15" value="sign" style="rounded=0;whiteSpace=wrap;html=1;" parent="1" vertex="1">
                    <mxGeometry x="520" y="464.75" width="120" height="60" as="geometry"/>
                </mxCell>
                <mxCell id="4Uoxr0BLBg2A_77hPQzO-21" style="edgeStyle=none;html=1;" parent="1" source="4Uoxr0BLBg2A_77hPQzO-17" target="4Uoxr0BLBg2A_77hPQzO-20" edge="1">
                    <mxGeometry relative="1" as="geometry"/>
                </mxCell>
                <mxCell id="4Uoxr0BLBg2A_77hPQzO-22" value="+SigHash::All" style="edgeLabel;html=1;align=center;verticalAlign=middle;resizable=0;points=[];" parent="4Uoxr0BLBg2A_77hPQzO-21" vertex="1" connectable="0">
                    <mxGeometry x="-0.2571" y="1" relative="1" as="geometry">
                        <mxPoint x="36" y="2" as="offset"/>
                    </mxGeometry>
                </mxCell>
                <mxCell id="4Uoxr0BLBg2A_77hPQzO-34" style="edgeStyle=none;curved=1;html=1;shadow=0;dashed=1;dashPattern=1 4;strokeColor=default;strokeWidth=1;fontFamily=Helvetica;fontSize=11;" parent="1" source="4Uoxr0BLBg2A_77hPQzO-20" target="4Uoxr0BLBg2A_77hPQzO-23" edge="1">
                    <mxGeometry relative="1" as="geometry">
                        <Array as="points">
                            <mxPoint x="310" y="654.75"/>
                        </Array>
                    </mxGeometry>
                </mxCell>
                <mxCell id="4Uoxr0BLBg2A_77hPQzO-20" value="signature" style="rounded=0;whiteSpace=wrap;html=1;" parent="1" vertex="1">
                    <mxGeometry x="720" y="584.75" width="120" height="60" as="geometry"/>
                </mxCell>
                <mxCell id="4Uoxr0BLBg2A_77hPQzO-23" value="signature" style="text;html=1;align=center;verticalAlign=middle;resizable=0;points=[];autosize=1;strokeColor=none;fillColor=none;fontFamily=Courier New;fontSize=18;" parent="1" vertex="1">
                    <mxGeometry x="90" y="734.75" width="120" height="40" as="geometry"/>
                </mxCell>
                <mxCell id="4Uoxr0BLBg2A_77hPQzO-24" value="public_key" style="text;html=1;align=center;verticalAlign=middle;resizable=0;points=[];autosize=1;strokeColor=none;fillColor=none;fontFamily=Courier New;fontSize=18;" parent="1" vertex="1">
                    <mxGeometry x="210" y="734.75" width="130" height="40" as="geometry"/>
                </mxCell>
                <mxCell id="4Uoxr0BLBg2A_77hPQzO-25" value="OP_DUP" style="text;html=1;align=center;verticalAlign=middle;resizable=0;points=[];autosize=1;strokeColor=none;fillColor=none;fontFamily=Courier New;fontSize=18;" parent="1" vertex="1">
                    <mxGeometry x="340" y="734.75" width="90" height="40" as="geometry"/>
                </mxCell>
                <mxCell id="4Uoxr0BLBg2A_77hPQzO-26" value="OP_CHECKSIG" style="text;html=1;align=center;verticalAlign=middle;resizable=0;points=[];autosize=1;strokeColor=none;fillColor=none;fontFamily=Courier New;fontSize=18;" parent="1" vertex="1">
                    <mxGeometry x="900" y="734.75" width="140" height="40" as="geometry"/>
                </mxCell>
                <mxCell id="4Uoxr0BLBg2A_77hPQzO-27" value="OP_HASH160" style="text;html=1;align=center;verticalAlign=middle;resizable=0;points=[];autosize=1;strokeColor=none;fillColor=none;fontFamily=Courier New;fontSize=18;" parent="1" vertex="1">
                    <mxGeometry x="420" y="734.75" width="130" height="40" as="geometry"/>
                </mxCell>
                <mxCell id="4Uoxr0BLBg2A_77hPQzO-28" value="public_key_hash" style="text;html=1;align=center;verticalAlign=middle;resizable=0;points=[];autosize=1;strokeColor=none;fillColor=none;fontFamily=Courier New;fontSize=18;" parent="1" vertex="1">
                    <mxGeometry x="540" y="734.75" width="190" height="40" as="geometry"/>
                </mxCell>
                <mxCell id="4Uoxr0BLBg2A_77hPQzO-29" value="OP_EQUALVERIFY" style="text;html=1;align=center;verticalAlign=middle;resizable=0;points=[];autosize=1;strokeColor=none;fillColor=none;fontFamily=Courier New;fontSize=18;" parent="1" vertex="1">
                    <mxGeometry x="730" y="734.75" width="170" height="40" as="geometry"/>
                </mxCell>
                <mxCell id="4Uoxr0BLBg2A_77hPQzO-33" value="" style="edgeStyle=none;html=1;fontFamily=Courier New;fontSize=18;strokeWidth=1;shadow=0;strokeColor=default;dashed=1;dashPattern=1 1;curved=1;endArrow=none;" parent="1" source="4Uoxr0BLBg2A_77hPQzO-20" target="4Uoxr0BLBg2A_77hPQzO-17" edge="1">
                    <mxGeometry relative="1" as="geometry">
                        <mxPoint x="1160" y="406.6854838709678" as="sourcePoint"/>
                        <mxPoint x="344.7058823529412" y="704.75" as="targetPoint"/>
                    </mxGeometry>
                </mxCell>
                <mxCell id="4Uoxr0BLBg2A_77hPQzO-17" value="sign_der" style="rounded=0;whiteSpace=wrap;html=1;" parent="1" vertex="1">
                    <mxGeometry x="720" y="464.75" width="120" height="60" as="geometry"/>
                </mxCell>
            </root>
        </mxGraphModel>
    </diagram>
    <diagram id="pc0ZpBehj514tfeMLbWF" name="tx relationship">
        <mxGraphModel dx="1118" dy="773" grid="1" gridSize="10" guides="1" tooltips="1" connect="1" arrows="1" fold="1" page="1" pageScale="1" pageWidth="850" pageHeight="1100" math="0" shadow="0">
            <root>
                <mxCell id="0"/>
                <mxCell id="1" parent="0"/>
                <mxCell id="49" value="" style="shape=card;whiteSpace=wrap;html=1;" parent="1" vertex="1">
                    <mxGeometry x="70" y="110" width="590" height="450" as="geometry"/>
                </mxCell>
                <mxCell id="47" value="" style="shape=card;whiteSpace=wrap;html=1;" parent="1" vertex="1">
                    <mxGeometry x="700" y="107.5" width="690" height="452.5" as="geometry"/>
                </mxCell>
                <mxCell id="79" value="" style="rounded=0;whiteSpace=wrap;html=1;" parent="1" vertex="1">
                    <mxGeometry x="390" y="247.5" width="250" height="172.5" as="geometry"/>
                </mxCell>
                <mxCell id="77" value="" style="rounded=0;whiteSpace=wrap;html=1;" parent="1" vertex="1">
                    <mxGeometry x="730" y="140" width="320" height="380" as="geometry"/>
                </mxCell>
                <mxCell id="15" value="32 bytes LE" style="rounded=0;whiteSpace=wrap;html=1;" parent="1" vertex="1">
                    <mxGeometry x="910" y="170" width="120" height="60" as="geometry"/>
                </mxCell>
                <mxCell id="16" value="previous transaction ID" style="text;html=1;align=center;verticalAlign=middle;resizable=0;points=[];autosize=1;strokeColor=none;fillColor=none;" parent="1" vertex="1">
                    <mxGeometry x="750" y="185" width="150" height="30" as="geometry"/>
                </mxCell>
                <mxCell id="19" value="4 bytes LE" style="rounded=0;whiteSpace=wrap;html=1;" parent="1" vertex="1">
                    <mxGeometry x="910" y="255" width="120" height="60" as="geometry"/>
                </mxCell>
                <mxCell id="20" value="previous transaction index" style="text;html=1;align=center;verticalAlign=middle;resizable=0;points=[];autosize=1;strokeColor=none;fillColor=none;" parent="1" vertex="1">
                    <mxGeometry x="740" y="275" width="160" height="30" as="geometry"/>
                </mxCell>
                <mxCell id="21" value="" style="rounded=0;whiteSpace=wrap;html=1;" parent="1" vertex="1">
                    <mxGeometry x="910" y="345" width="120" height="60" as="geometry"/>
                </mxCell>
                <mxCell id="92" style="edgeStyle=none;curved=1;html=1;entryX=0.5;entryY=0;entryDx=0;entryDy=0;strokeWidth=3;exitX=0;exitY=0.5;exitDx=0;exitDy=0;" parent="1" source="21" target="84" edge="1">
                    <mxGeometry relative="1" as="geometry">
                        <Array as="points">
                            <mxPoint x="770" y="480"/>
                        </Array>
                    </mxGeometry>
                </mxCell>
                <mxCell id="22" value="ScriptSig" style="text;html=1;align=center;verticalAlign=middle;resizable=0;points=[];autosize=1;strokeColor=none;fillColor=none;" parent="1" vertex="1">
                    <mxGeometry x="830" y="360" width="70" height="30" as="geometry"/>
                </mxCell>
                <mxCell id="23" value="4 bytes LE" style="rounded=0;whiteSpace=wrap;html=1;" parent="1" vertex="1">
                    <mxGeometry x="910" y="435" width="120" height="60" as="geometry"/>
                </mxCell>
                <mxCell id="24" value="sequence" style="text;html=1;align=center;verticalAlign=middle;resizable=0;points=[];autosize=1;strokeColor=none;fillColor=none;" parent="1" vertex="1">
                    <mxGeometry x="820" y="450" width="80" height="30" as="geometry"/>
                </mxCell>
                <mxCell id="25" value="8 bytes LE" style="rounded=0;whiteSpace=wrap;html=1;" parent="1" vertex="1">
                    <mxGeometry x="495" y="265" width="120" height="60" as="geometry"/>
                </mxCell>
                <mxCell id="26" value="value" style="text;html=1;align=center;verticalAlign=middle;resizable=0;points=[];autosize=1;strokeColor=none;fillColor=none;" parent="1" vertex="1">
                    <mxGeometry x="440" y="280" width="50" height="30" as="geometry"/>
                </mxCell>
                <mxCell id="27" value="" style="rounded=0;whiteSpace=wrap;html=1;" parent="1" vertex="1">
                    <mxGeometry x="495" y="345" width="120" height="60" as="geometry"/>
                </mxCell>
                <mxCell id="93" style="edgeStyle=none;curved=1;html=1;entryX=0;entryY=0.5;entryDx=0;entryDy=0;strokeWidth=3;exitX=0.5;exitY=1;exitDx=0;exitDy=0;" parent="1" source="27" target="86" edge="1">
                    <mxGeometry relative="1" as="geometry">
                        <Array as="points">
                            <mxPoint x="480" y="600"/>
                        </Array>
                    </mxGeometry>
                </mxCell>
                <mxCell id="28" value="ScriptPubKey" style="text;html=1;align=center;verticalAlign=middle;resizable=0;points=[];autosize=1;strokeColor=none;fillColor=none;" parent="1" vertex="1">
                    <mxGeometry x="390" y="360" width="100" height="30" as="geometry"/>
                </mxCell>
                <mxCell id="32" value="" style="rounded=0;whiteSpace=wrap;html=1;" parent="1" vertex="1">
                    <mxGeometry x="1220" y="287.5" width="120" height="60" as="geometry"/>
                </mxCell>
                <mxCell id="33" value="4 bytes LE" style="rounded=0;whiteSpace=wrap;html=1;" parent="1" vertex="1">
                    <mxGeometry x="1230" y="207.5" width="120" height="60" as="geometry"/>
                </mxCell>
                <mxCell id="34" value="version" style="text;html=1;align=center;verticalAlign=middle;resizable=0;points=[];autosize=1;strokeColor=none;fillColor=none;" parent="1" vertex="1">
                    <mxGeometry x="1150" y="222.5" width="60" height="30" as="geometry"/>
                </mxCell>
                <mxCell id="35" value="" style="rounded=0;whiteSpace=wrap;html=1;" parent="1" vertex="1">
                    <mxGeometry x="1230" y="297.5" width="120" height="60" as="geometry"/>
                </mxCell>
                <mxCell id="81" style="edgeStyle=none;html=1;entryX=1;entryY=0.5;entryDx=0;entryDy=0;strokeWidth=3;" parent="1" source="36" target="77" edge="1">
                    <mxGeometry relative="1" as="geometry"/>
                </mxCell>
                <mxCell id="36" value="" style="rounded=0;whiteSpace=wrap;html=1;" parent="1" vertex="1">
                    <mxGeometry x="1240" y="307.5" width="120" height="60" as="geometry"/>
                </mxCell>
                <mxCell id="37" value="inputs" style="text;html=1;align=center;verticalAlign=middle;resizable=0;points=[];autosize=1;strokeColor=none;fillColor=none;" parent="1" vertex="1">
                    <mxGeometry x="1150" y="300.5" width="60" height="30" as="geometry"/>
                </mxCell>
                <mxCell id="38" value="" style="rounded=0;whiteSpace=wrap;html=1;" parent="1" vertex="1">
                    <mxGeometry x="1220" y="382.5" width="120" height="60" as="geometry"/>
                </mxCell>
                <mxCell id="39" value="" style="rounded=0;whiteSpace=wrap;html=1;" parent="1" vertex="1">
                    <mxGeometry x="1230" y="392.5" width="120" height="60" as="geometry"/>
                </mxCell>
                <mxCell id="40" value="" style="rounded=0;whiteSpace=wrap;html=1;" parent="1" vertex="1">
                    <mxGeometry x="1240" y="402.5" width="120" height="60" as="geometry"/>
                </mxCell>
                <mxCell id="41" value="outputs" style="text;html=1;align=center;verticalAlign=middle;resizable=0;points=[];autosize=1;strokeColor=none;fillColor=none;" parent="1" vertex="1">
                    <mxGeometry x="1150" y="407.5" width="60" height="30" as="geometry"/>
                </mxCell>
                <mxCell id="42" value="4 bytes LE" style="rounded=0;whiteSpace=wrap;html=1;" parent="1" vertex="1">
                    <mxGeometry x="1230" y="477.5" width="120" height="60" as="geometry"/>
                </mxCell>
                <mxCell id="43" value="locktime" style="text;html=1;align=center;verticalAlign=middle;resizable=0;points=[];autosize=1;strokeColor=none;fillColor=none;" parent="1" vertex="1">
                    <mxGeometry x="1140" y="492.5" width="70" height="30" as="geometry"/>
                </mxCell>
                <mxCell id="44" value="32 bytes LE" style="rounded=0;whiteSpace=wrap;html=1;" parent="1" vertex="1">
                    <mxGeometry x="1230" y="132.5" width="120" height="60" as="geometry"/>
                </mxCell>
                <mxCell id="45" value="transaction ID" style="text;html=1;align=center;verticalAlign=middle;resizable=0;points=[];autosize=1;strokeColor=none;fillColor=none;" parent="1" vertex="1">
                    <mxGeometry x="1110" y="147.5" width="100" height="30" as="geometry"/>
                </mxCell>
                <mxCell id="48" value="Transaction X + n" style="text;html=1;align=center;verticalAlign=middle;resizable=0;points=[];autosize=1;strokeColor=none;fillColor=none;" parent="1" vertex="1">
                    <mxGeometry x="745" y="70" width="120" height="30" as="geometry"/>
                </mxCell>
                <mxCell id="50" value="" style="rounded=0;whiteSpace=wrap;html=1;" parent="1" vertex="1">
                    <mxGeometry x="180" y="286.25" width="120" height="60" as="geometry"/>
                </mxCell>
                <mxCell id="51" value="4 bytes LE" style="rounded=0;whiteSpace=wrap;html=1;" parent="1" vertex="1">
                    <mxGeometry x="190" y="206.25" width="120" height="60" as="geometry"/>
                </mxCell>
                <mxCell id="52" value="version" style="text;html=1;align=center;verticalAlign=middle;resizable=0;points=[];autosize=1;strokeColor=none;fillColor=none;" parent="1" vertex="1">
                    <mxGeometry x="110" y="221.25" width="60" height="30" as="geometry"/>
                </mxCell>
                <mxCell id="53" value="" style="rounded=0;whiteSpace=wrap;html=1;" parent="1" vertex="1">
                    <mxGeometry x="190" y="296.25" width="120" height="60" as="geometry"/>
                </mxCell>
                <mxCell id="54" value="" style="rounded=0;whiteSpace=wrap;html=1;" parent="1" vertex="1">
                    <mxGeometry x="200" y="306.25" width="120" height="60" as="geometry"/>
                </mxCell>
                <mxCell id="55" value="inputs" style="text;html=1;align=center;verticalAlign=middle;resizable=0;points=[];autosize=1;strokeColor=none;fillColor=none;" parent="1" vertex="1">
                    <mxGeometry x="110" y="306.25" width="60" height="30" as="geometry"/>
                </mxCell>
                <mxCell id="56" value="" style="rounded=0;whiteSpace=wrap;html=1;" parent="1" vertex="1">
                    <mxGeometry x="180" y="381.25" width="120" height="60" as="geometry"/>
                </mxCell>
                <mxCell id="57" value="" style="rounded=0;whiteSpace=wrap;html=1;" parent="1" vertex="1">
                    <mxGeometry x="190" y="391.25" width="120" height="60" as="geometry"/>
                </mxCell>
                <mxCell id="82" style="edgeStyle=none;html=1;entryX=0;entryY=0.5;entryDx=0;entryDy=0;strokeWidth=3;" parent="1" source="58" target="79" edge="1">
                    <mxGeometry relative="1" as="geometry"/>
                </mxCell>
                <mxCell id="58" value="" style="rounded=0;whiteSpace=wrap;html=1;" parent="1" vertex="1">
                    <mxGeometry x="200" y="401.25" width="120" height="60" as="geometry"/>
                </mxCell>
                <mxCell id="59" value="outputs" style="text;html=1;align=center;verticalAlign=middle;resizable=0;points=[];autosize=1;strokeColor=none;fillColor=none;" parent="1" vertex="1">
                    <mxGeometry x="110" y="406.25" width="60" height="30" as="geometry"/>
                </mxCell>
                <mxCell id="60" value="4 bytes LE" style="rounded=0;whiteSpace=wrap;html=1;" parent="1" vertex="1">
                    <mxGeometry x="190" y="476.25" width="120" height="60" as="geometry"/>
                </mxCell>
                <mxCell id="61" value="locktime" style="text;html=1;align=center;verticalAlign=middle;resizable=0;points=[];autosize=1;strokeColor=none;fillColor=none;" parent="1" vertex="1">
                    <mxGeometry x="100" y="491.25" width="70" height="30" as="geometry"/>
                </mxCell>
                <mxCell id="62" value="32 bytes LE" style="rounded=0;whiteSpace=wrap;html=1;" parent="1" vertex="1">
                    <mxGeometry x="190" y="131.25" width="120" height="60" as="geometry"/>
                </mxCell>
                <mxCell id="63" value="transaction ID" style="text;html=1;align=center;verticalAlign=middle;resizable=0;points=[];autosize=1;strokeColor=none;fillColor=none;" parent="1" vertex="1">
                    <mxGeometry x="70" y="146.25" width="100" height="30" as="geometry"/>
                </mxCell>
                <mxCell id="64" value="Transaction X&amp;nbsp;" style="text;html=1;align=center;verticalAlign=middle;resizable=0;points=[];autosize=1;strokeColor=none;fillColor=none;" parent="1" vertex="1">
                    <mxGeometry x="160" y="72.5" width="100" height="30" as="geometry"/>
                </mxCell>
                <mxCell id="69" value="output" style="text;html=1;align=center;verticalAlign=middle;resizable=0;points=[];autosize=1;strokeColor=none;fillColor=none;" parent="1" vertex="1">
                    <mxGeometry x="470" y="220" width="60" height="30" as="geometry"/>
                </mxCell>
                <mxCell id="71" value="input" style="text;html=1;align=center;verticalAlign=middle;resizable=0;points=[];autosize=1;strokeColor=none;fillColor=none;" parent="1" vertex="1">
                    <mxGeometry x="865" y="105" width="50" height="30" as="geometry"/>
                </mxCell>
                <mxCell id="84" value="ScriptSig" style="rounded=0;whiteSpace=wrap;html=1;" parent="1" vertex="1">
                    <mxGeometry x="625" y="660" width="120" height="60" as="geometry"/>
                </mxCell>
                <mxCell id="86" value="&lt;span style=&quot;&quot;&gt;locking script&lt;/span&gt;" style="rounded=0;whiteSpace=wrap;html=1;" parent="1" vertex="1">
                    <mxGeometry x="625" y="720" width="120" height="60" as="geometry"/>
                </mxCell>
                <mxCell id="91" value="ScriptPubKey&lt;br&gt;locking script&lt;br&gt;witness script&lt;br&gt;cryptographic puzzle" style="text;html=1;align=center;verticalAlign=middle;resizable=0;points=[];autosize=1;strokeColor=none;fillColor=none;" parent="1" vertex="1">
                    <mxGeometry x="470" y="720" width="130" height="70" as="geometry"/>
                </mxCell>
                <mxCell id="94" value="ScriptSig&lt;br&gt;unlocking script&lt;br&gt;witness" style="text;html=1;align=center;verticalAlign=middle;resizable=0;points=[];autosize=1;strokeColor=none;fillColor=none;" parent="1" vertex="1">
                    <mxGeometry x="770" y="660" width="110" height="60" as="geometry"/>
                </mxCell>
            </root>
        </mxGraphModel>
    </diagram>
</mxfile>